<svg xmlns="http://www.w3.org/2000/svg" viewBox="0 0 512 512"><defs><style>.cls-3{fill:#fff}.cls-4{fill:#e0e0e2}.cls-8{fill:#97d8fc}</style></defs><circle cx="256" cy="256" r="256" style="fill:#27273d" id="BULINE"/><g id="Icons"><path d="M440.33 432.62a256 256 0 0 1-370.66 0z" style="fill:#3e436d"/><path class="cls-3" d="M479.62 86.53V361a9.08 9.08 0 0 1-9.09 9.08h-63.79l7.73 15.26 15.3 30.18a11.81 11.81 0 0 1-21.06 10.68L388 385.29 380.26 370H129.53l-7.74 15.26-20.72 40.86A11.81 11.81 0 0 1 80 415.47l15.3-30.18L103 370H39.48a9.55 9.55 0 0 1-2.28-.27l-.85-.27a2.37 2.37 0 0 1-.41-.17 8.34 8.34 0 0 1-.8-.38 7.17 7.17 0 0 1-.75-.46 9.09 9.09 0 0 1-4-7.53V86.53a9.09 9.09 0 0 1 9.1-9.09h431.04a9.08 9.08 0 0 1 9.09 9.09z"/><path class="cls-4" d="M104.21 370H39.48a9.1 9.1 0 0 1-9.1-9.1V86.53a9.11 9.11 0 0 1 9.1-9.1h64.73a9.11 9.11 0 0 0-9.1 9.1v274.41a9.1 9.1 0 0 0 9.1 9.06z"/><circle class="cls-4" cx="254.84" cy="354.71" r="9.3"/><circle cx="457.34" cy="354.55" r="4.57" style="fill:#db1b1b"/><rect x="43.54" y="91.1" width="422.93" height="247.91" rx="5.86" style="fill:#7cc8fb"/><path d="M95.11 91.1V339H49.4a5.86 5.86 0 0 1-5.85-5.87V97a5.85 5.85 0 0 1 5.85-5.9z" style="fill:#41c0e3"/><path class="cls-4" d="m129.53 370.03-7.73 15.26H95.31l7.74-15.26h26.48zM414.47 385.29h-26.48l-7.73-15.26h26.48l7.73 15.26z"/><circle class="cls-8" cx="440.68" cy="152.07" r="16.65"/><circle class="cls-8" cx="440.68" cy="117.38" r="11.8"/><circle cx="255" cy="224.9" r="83" style="fill:#38c487"/><path d="M267.5 307a83 83 0 1 1 0-164.12 83 83 0 0 0 0 164.12z" style="fill:#00b564"/><path class="cls-3" d="M217.51 166.67v116.45a10.43 10.43 0 0 0 16.66 8.36l78.12-58.22a10.43 10.43 0 0 0 0-16.73l-78.12-58.22a10.43 10.43 0 0 0-16.66 8.36z"/></g></svg>